# xmcd
#
# Track frame offsets:
#	150
#	32679
#	62970
#	92491
#	108406
#	137130
#	163606
#	197346
#	236471
#	268123
#	283246
#	300731
#
# Disc length: 4382 seconds
#
# Revision: 0
# Processed by: cddbd v1.5.2PL0 Copyright (c) Steve Scherf et al.
# Submitted via: EasyCDDAExtractor 15.2.5.1
#
DISCID=a6111c0c
DTITLE=Various Artist - HOUSE 2007
DYEAR=1900
DGENRE=
TTITLE0=HOUSEMATES - Without You (Milk and Sugar's "Pure House" Club Mix)
TTITLE1=CANDY WILLIAMS feat. THE SIMPSON HORNS - I Got The Music (Club Mix)
TTITLE2=HOUSE ARREST DJ TEAM - Everybody On The Dancefloor (Slice and Case Remix
TTITLE2=)
TTITLE3=SPENCER and HILL - Up And Away (Club Radio Edit)
TTITLE4=DA LOOP BROTHERS - Do You Wanna Ride (Club Mix)
TTITLE5=KAISER SOUZAI - Monique (Trick and Kubic Remix)
TTITLE6=MILK and SUGAR feat. NICOLE TYLER - Has Your Man Got Soul (Club Mix)
TTITLE7=PLEASURE BAR - If Luv Turns Right (Erick Decks Remix)
TTITLE8=DENIS and JERRY - I Get What I Want (Denis The Menace and Jerry Ropero's M
TTITLE8=ain Mix)
TTITLE9=DEEP MELANGE feat. LARS BUTTERCUP - Big Purple Balloon (Deep Melange R
TTITLE9=adio Edit)
TTITLE10=OLIVER BACKENS and STEFAN GRUENWALD - Alive
TTITLE11=JOHN DAHLBÄCK and ANDY P - Falling In Love (Original Mix)
EXTD=
EXTT0=
EXTT1=
EXTT2=
EXTT3=
EXTT4=
EXTT5=
EXTT6=
EXTT7=
EXTT8=
EXTT9=
EXTT10=
EXTT11=
PLAYORDER=
